<svg data-v-d3f97b9e="" xmlns="http://www.w3.org/2000/svg" viewBox="0 0 777.5882641958398 232"><!----><!----><!----><g data-v-d3f97b9e="" id="e4c2f2bb-d2bd-4c06-ac1d-39bfd94cc787" fill="white" transform="matrix(5.88235305117351,0,0,5.88235305117351,-5.352948746673235,143.62206448870683)"><path d="M0.91 13.44L0.91 7.52L0.91 7.52Q0.91 6.92 1.26 6.57L1.26 6.57L1.26 6.57Q1.61 6.22 2.21 6.22L2.21 6.22L6.83 6.22L6.83 6.22Q6.93 6.37 7.01 6.62L7.01 6.62L7.01 6.62Q7.08 6.87 7.08 7.15L7.08 7.15L7.08 7.15Q7.08 7.69 6.85 7.91L6.85 7.91L6.85 7.91Q6.62 8.13 6.24 8.13L6.24 8.13L3.29 8.13L3.29 9.44L6.44 9.44L6.44 9.44Q6.54 9.59 6.62 9.84L6.62 9.84L6.62 9.84Q6.69 10.08 6.69 10.36L6.69 10.36L6.69 10.36Q6.69 10.89 6.47 11.12L6.47 11.12L6.47 11.12Q6.24 11.34 5.87 11.34L5.87 11.34L3.29 11.34L3.29 12.81L6.89 12.81L6.89 12.81Q6.99 12.96 7.06 13.22L7.06 13.22L7.06 13.22Q7.14 13.47 7.14 13.75L7.14 13.75L7.14 13.75Q7.14 14.28 6.91 14.51L6.91 14.51L6.91 14.51Q6.68 14.74 6.30 14.74L6.30 14.74L2.21 14.74L2.21 14.74Q1.61 14.74 1.26 14.39L1.26 14.39L1.26 14.39Q0.91 14.04 0.91 13.44L0.91 13.44ZM12.03 9.56L12.03 9.56L12.03 9.56Q11.68 9.56 11.36 9.67L11.36 9.67L11.36 9.67Q11.05 9.79 10.82 10.00L10.82 10.00L10.82 10.00Q10.58 10.22 10.44 10.54L10.44 10.54L10.44 10.54Q10.30 10.86 10.30 11.30L10.30 11.30L10.30 11.30Q10.30 12.17 10.80 12.60L10.80 12.60L10.80 12.60Q11.30 13.03 12.01 13.03L12.01 13.03L12.01 13.03Q12.43 13.03 12.74 12.94L12.74 12.94L12.74 12.94Q13.05 12.84 13.29 12.73L13.29 12.73L13.29 12.73Q13.57 12.92 13.71 13.15L13.71 13.15L13.71 13.15Q13.85 13.38 13.85 13.71L13.85 13.71L13.85 13.71Q13.85 14.28 13.30 14.60L13.30 14.60L13.30 14.60Q12.75 14.91 11.79 14.91L11.79 14.91L11.79 14.91Q10.91 14.91 10.19 14.65L10.19 14.65L10.19 14.65Q9.48 14.39 8.97 13.92L8.97 13.92L8.97 13.92Q8.46 13.45 8.18 12.80L8.18 12.80L8.18 12.80Q7.90 12.14 7.90 11.34L7.90 11.34L7.90 11.34Q7.90 10.42 8.20 9.72L8.20 9.72L8.20 9.72Q8.50 9.03 9.02 8.58L9.02 8.58L9.02 8.58Q9.53 8.13 10.21 7.91L10.21 7.91L10.21 7.91Q10.89 7.69 11.65 7.69L11.65 7.69L11.65 7.69Q12.66 7.69 13.20 8.05L13.20 8.05L13.20 8.05Q13.75 8.41 13.75 8.99L13.75 8.99L13.75 8.99Q13.75 9.25 13.62 9.49L13.62 9.49L13.62 9.49Q13.50 9.72 13.33 9.88L13.33 9.88L13.33 9.88Q13.09 9.77 12.75 9.67L12.75 9.67L12.75 9.67Q12.42 9.56 12.03 9.56ZM21.76 10.44L21.76 14.69L21.76 14.69Q21.62 14.73 21.32 14.77L21.32 14.77L21.32 14.77Q21.01 14.81 20.69 14.81L20.69 14.81L20.69 14.81Q20.38 14.81 20.14 14.77L20.14 14.77L20.14 14.77Q19.89 14.73 19.73 14.60L19.73 14.60L19.73 14.60Q19.56 14.48 19.47 14.26L19.47 14.26L19.47 14.26Q19.38 14.04 19.38 13.69L19.38 13.69L19.38 10.58L19.38 10.58Q19.38 10.01 19.09 9.78L19.09 9.78L19.09 9.78Q18.80 9.55 18.38 9.55L18.38 9.55L18.38 9.55Q18.10 9.55 17.85 9.62L17.85 9.62L17.85 9.62Q17.60 9.69 17.44 9.79L17.44 9.79L17.44 14.69L17.44 14.69Q17.30 14.73 17.00 14.77L17.00 14.77L17.00 14.77Q16.70 14.81 16.38 14.81L16.38 14.81L16.38 14.81Q16.07 14.81 15.83 14.77L15.83 14.77L15.83 14.77Q15.58 14.73 15.41 14.60L15.41 14.60L15.41 14.60Q15.25 14.48 15.15 14.26L15.15 14.26L15.15 14.26Q15.06 14.04 15.06 13.69L15.06 13.69L15.06 5.57L15.06 5.57Q15.22 5.54 15.52 5.50L15.52 5.50L15.52 5.50Q15.82 5.45 16.13 5.45L16.13 5.45L16.13 5.45Q16.44 5.45 16.68 5.49L16.68 5.49L16.68 5.49Q16.93 5.53 17.09 5.66L17.09 5.66L17.09 5.66Q17.26 5.78 17.35 6.00L17.35 6.00L17.35 6.00Q17.44 6.22 17.44 6.57L17.44 6.57L17.44 7.94L17.44 7.94Q17.63 7.87 18.00 7.78L18.00 7.78L18.00 7.78Q18.37 7.69 18.82 7.69L18.82 7.69L18.82 7.69Q20.20 7.69 20.98 8.38L20.98 8.38L20.98 8.38Q21.76 9.07 21.76 10.44L21.76 10.44ZM30.27 11.30L30.27 11.30L30.27 11.30Q30.27 12.17 30.00 12.85L30.00 12.85L30.00 12.85Q29.74 13.52 29.25 13.99L29.25 13.99L29.25 13.99Q28.77 14.45 28.10 14.69L28.10 14.69L28.10 14.69Q27.43 14.92 26.60 14.92L26.60 14.92L26.60 14.92Q25.77 14.92 25.10 14.67L25.10 14.67L25.10 14.67Q24.43 14.42 23.95 13.95L23.95 13.95L23.95 13.95Q23.46 13.48 23.20 12.81L23.20 12.81L23.20 12.81Q22.93 12.14 22.93 11.30L22.93 11.30L22.93 11.30Q22.93 10.47 23.20 9.80L23.20 9.80L23.20 9.80Q23.46 9.13 23.95 8.66L23.95 8.66L23.95 8.66Q24.43 8.19 25.10 7.94L25.10 7.94L25.10 7.94Q25.77 7.69 26.60 7.69L26.60 7.69L26.60 7.69Q27.43 7.69 28.10 7.95L28.10 7.95L28.10 7.95Q28.77 8.20 29.25 8.67L29.25 8.67L29.25 8.67Q29.74 9.14 30.00 9.81L30.00 9.81L30.00 9.81Q30.27 10.49 30.27 11.30ZM25.37 11.30L25.37 11.30L25.37 11.30Q25.37 12.15 25.70 12.61L25.70 12.61L25.70 12.61Q26.03 13.06 26.61 13.06L26.61 13.06L26.61 13.06Q27.20 13.06 27.52 12.60L27.52 12.60L27.52 12.60Q27.83 12.14 27.83 11.30L27.83 11.30L27.83 11.30Q27.83 10.46 27.51 10.00L27.51 10.00L27.51 10.00Q27.19 9.55 26.60 9.55L26.60 9.55L26.60 9.55Q26.01 9.55 25.69 10.00L25.69 10.00L25.69 10.00Q25.37 10.46 25.37 11.30ZM38.74 7.92L38.74 7.92L38.74 7.92Q37.66 7.92 37.09 8.58L37.09 8.58L37.09 8.58Q36.51 9.24 36.51 10.44L36.51 10.44L36.51 10.44Q36.51 11.66 37.15 12.32L37.15 12.32L37.15 12.32Q37.79 12.98 38.86 12.98L38.86 12.98L38.86 12.98Q39.44 12.98 39.84 12.82L39.84 12.82L39.84 12.82Q40.24 12.67 40.60 12.47L40.60 12.47L40.60 12.47Q40.84 12.67 40.97 12.94L40.97 12.94L40.97 12.94Q41.10 13.22 41.10 13.58L41.10 13.58L41.10 13.58Q41.10 14.15 40.47 14.55L40.47 14.55L40.47 14.55Q39.83 14.95 38.53 14.95L38.53 14.95L38.53 14.95Q37.59 14.95 36.76 14.69L36.76 14.69L36.76 14.69Q35.94 14.42 35.32 13.87L35.32 13.87L35.32 13.87Q34.71 13.31 34.35 12.47L34.35 12.47L34.35 12.47Q33.99 11.62 33.99 10.44L33.99 10.44L33.99 10.44Q33.99 9.35 34.33 8.52L34.33 8.52L34.33 8.52Q34.68 7.69 35.27 7.11L35.27 7.11L35.27 7.11Q35.87 6.54 36.67 6.24L36.67 6.24L36.67 6.24Q37.46 5.95 38.37 5.95L38.37 5.95L38.37 5.95Q39.66 5.95 40.37 6.37L40.37 6.37L40.37 6.37Q41.08 6.79 41.08 7.45L41.08 7.45L41.08 7.45Q41.08 7.81 40.89 8.08L40.89 8.08L40.89 8.08Q40.71 8.34 40.47 8.50L40.47 8.50L40.47 8.50Q40.11 8.26 39.70 8.09L39.70 8.09L39.70 8.09Q39.28 7.92 38.74 7.92ZM49.08 11.30L49.08 11.30L49.08 11.30Q49.08 12.17 48.82 12.85L48.82 12.85L48.82 12.85Q48.55 13.52 48.07 13.99L48.07 13.99L48.07 13.99Q47.59 14.45 46.91 14.69L46.91 14.69L46.91 14.69Q46.24 14.92 45.42 14.92L45.42 14.92L45.42 14.92Q44.59 14.92 43.92 14.67L43.92 14.67L43.92 14.67Q43.25 14.42 42.76 13.95L42.76 13.95L42.76 13.95Q42.28 13.48 42.01 12.81L42.01 12.81L42.01 12.81Q41.75 12.14 41.75 11.30L41.75 11.30L41.75 11.30Q41.75 10.47 42.01 9.80L42.01 9.80L42.01 9.80Q42.28 9.13 42.76 8.66L42.76 8.66L42.76 8.66Q43.25 8.19 43.92 7.94L43.92 7.94L43.92 7.94Q44.59 7.69 45.42 7.69L45.42 7.69L45.42 7.69Q46.24 7.69 46.91 7.95L46.91 7.95L46.91 7.95Q47.59 8.20 48.07 8.67L48.07 8.67L48.07 8.67Q48.55 9.14 48.82 9.81L48.82 9.81L48.82 9.81Q49.08 10.49 49.08 11.30ZM44.18 11.30L44.18 11.30L44.18 11.30Q44.18 12.15 44.51 12.61L44.51 12.61L44.51 12.61Q44.84 13.06 45.43 13.06L45.43 13.06L45.43 13.06Q46.02 13.06 46.33 12.60L46.33 12.60L46.33 12.60Q46.65 12.14 46.65 11.30L46.65 11.30L46.65 11.30Q46.65 10.46 46.33 10.00L46.33 10.00L46.33 10.00Q46.00 9.55 45.42 9.55L45.42 9.55L45.42 9.55Q44.83 9.55 44.51 10.00L44.51 10.00L44.51 10.00Q44.18 10.46 44.18 11.30ZM53.51 7.69L53.51 7.69L53.51 7.69Q54.08 7.69 54.63 7.85L54.63 7.85L54.63 7.85Q55.19 8.01 55.59 8.33L55.59 8.33L55.59 8.33Q56.01 8.05 56.54 7.87L56.54 7.87L56.54 7.87Q57.06 7.69 57.81 7.69L57.81 7.69L57.81 7.69Q58.34 7.69 58.85 7.83L58.85 7.83L58.85 7.83Q59.36 7.97 59.76 8.27L59.76 8.27L59.76 8.27Q60.16 8.57 60.40 9.07L60.40 9.07L60.40 9.07Q60.63 9.56 60.63 10.28L60.63 10.28L60.63 14.69L60.63 14.69Q60.49 14.73 60.19 14.77L60.19 14.77L60.19 14.77Q59.89 14.81 59.57 14.81L59.57 14.81L59.57 14.81Q59.26 14.81 59.02 14.77L59.02 14.77L59.02 14.77Q58.77 14.73 58.60 14.60L58.60 14.60L58.60 14.60Q58.44 14.48 58.34 14.26L58.34 14.26L58.34 14.26Q58.25 14.04 58.25 13.69L58.25 13.69L58.25 10.35L58.25 10.35Q58.25 9.93 58.02 9.74L58.02 9.74L58.02 9.74Q57.78 9.55 57.37 9.55L57.37 9.55L57.37 9.55Q57.18 9.55 56.95 9.64L56.95 9.64L56.95 9.64Q56.73 9.73 56.62 9.83L56.62 9.83L56.62 9.83Q56.63 9.88 56.63 9.93L56.63 9.93L56.63 9.93Q56.63 9.98 56.63 10.02L56.63 10.02L56.63 14.69L56.63 14.69Q56.48 14.73 56.17 14.77L56.17 14.77L56.17 14.77Q55.87 14.81 55.57 14.81L55.57 14.81L55.57 14.81Q55.26 14.81 55.01 14.77L55.01 14.77L55.01 14.77Q54.77 14.73 54.60 14.60L54.60 14.60L54.60 14.60Q54.43 14.48 54.34 14.26L54.34 14.26L54.34 14.26Q54.25 14.04 54.25 13.69L54.25 13.69L54.25 10.35L54.25 10.35Q54.25 9.93 53.99 9.74L53.99 9.74L53.99 9.74Q53.73 9.55 53.37 9.55L53.37 9.55L53.37 9.55Q53.12 9.55 52.93 9.63L52.93 9.63L52.93 9.63Q52.75 9.70 52.63 9.77L52.63 9.77L52.63 14.69L52.63 14.69Q52.49 14.73 52.18 14.77L52.18 14.77L52.18 14.77Q51.88 14.81 51.56 14.81L51.56 14.81L51.56 14.81Q51.25 14.81 51.01 14.77L51.01 14.77L51.01 14.77Q50.76 14.73 50.60 14.60L50.60 14.60L50.60 14.60Q50.43 14.48 50.34 14.26L50.34 14.26L50.34 14.26Q50.25 14.04 50.25 13.69L50.25 13.69L50.25 9.46L50.25 9.46Q50.25 9.09 50.41 8.86L50.41 8.86L50.41 8.86Q50.57 8.64 50.85 8.44L50.85 8.44L50.85 8.44Q51.32 8.11 52.03 7.90L52.03 7.90L52.03 7.90Q52.74 7.69 53.51 7.69ZM65.35 7.69L65.35 7.69L65.35 7.69Q65.93 7.69 66.48 7.85L66.48 7.85L66.48 7.85Q67.03 8.01 67.44 8.33L67.44 8.33L67.44 8.33Q67.86 8.05 68.38 7.87L68.38 7.87L68.38 7.87Q68.91 7.69 69.65 7.69L69.65 7.69L69.65 7.69Q70.18 7.69 70.69 7.83L70.69 7.83L70.69 7.83Q71.20 7.97 71.60 8.27L71.60 8.27L71.60 8.27Q72.00 8.57 72.24 9.07L72.24 9.07L72.24 9.07Q72.48 9.56 72.48 10.28L72.48 10.28L72.48 14.69L72.48 14.69Q72.34 14.73 72.04 14.77L72.04 14.77L72.04 14.77Q71.74 14.81 71.41 14.81L71.41 14.81L71.41 14.81Q71.11 14.81 70.86 14.77L70.86 14.77L70.86 14.77Q70.62 14.73 70.45 14.60L70.45 14.60L70.45 14.60Q70.28 14.48 70.19 14.26L70.19 14.26L70.19 14.26Q70.10 14.04 70.10 13.69L70.10 13.69L70.10 10.35L70.10 10.35Q70.10 9.93 69.86 9.74L69.86 9.74L69.86 9.74Q69.62 9.55 69.22 9.55L69.22 9.55L69.22 9.55Q69.02 9.55 68.80 9.64L68.80 9.64L68.80 9.64Q68.57 9.73 68.46 9.83L68.46 9.83L68.46 9.83Q68.47 9.88 68.47 9.93L68.47 9.93L68.47 9.93Q68.47 9.98 68.47 10.02L68.47 10.02L68.47 14.69L68.47 14.69Q68.32 14.73 68.02 14.77L68.02 14.77L68.02 14.77Q67.72 14.81 67.41 14.81L67.41 14.81L67.41 14.81Q67.10 14.81 66.86 14.77L66.86 14.77L66.86 14.77Q66.61 14.73 66.44 14.60L66.44 14.60L66.44 14.60Q66.28 14.48 66.19 14.26L66.19 14.26L66.19 14.26Q66.09 14.04 66.09 13.69L66.09 13.69L66.09 10.35L66.09 10.35Q66.09 9.93 65.83 9.74L65.83 9.74L65.83 9.74Q65.58 9.55 65.21 9.55L65.21 9.55L65.21 9.55Q64.96 9.55 64.78 9.63L64.78 9.63L64.78 9.63Q64.60 9.70 64.47 9.77L64.47 9.77L64.47 14.69L64.47 14.69Q64.33 14.73 64.03 14.77L64.03 14.77L64.03 14.77Q63.73 14.81 63.41 14.81L63.41 14.81L63.41 14.81Q63.10 14.81 62.85 14.77L62.85 14.77L62.85 14.77Q62.61 14.73 62.44 14.60L62.44 14.60L62.44 14.60Q62.27 14.48 62.18 14.26L62.18 14.26L62.18 14.26Q62.09 14.04 62.09 13.69L62.09 13.69L62.09 9.46L62.09 9.46Q62.09 9.09 62.25 8.86L62.25 8.86L62.25 8.86Q62.41 8.64 62.69 8.44L62.69 8.44L62.69 8.44Q63.17 8.11 63.87 7.90L63.87 7.90L63.87 7.90Q64.58 7.69 65.35 7.69ZM73.93 12.00L73.93 7.99L73.93 7.99Q74.07 7.95 74.37 7.91L74.37 7.91L74.37 7.91Q74.68 7.87 75.00 7.87L75.00 7.87L75.00 7.87Q75.31 7.87 75.55 7.91L75.55 7.91L75.55 7.91Q75.80 7.95 75.96 8.08L75.96 8.08L75.96 8.08Q76.13 8.20 76.22 8.42L76.22 8.42L76.22 8.42Q76.31 8.64 76.31 8.99L76.31 8.99L76.31 12.00L76.31 12.00Q76.31 12.57 76.59 12.82L76.59 12.82L76.59 12.82Q76.87 13.06 77.41 13.06L77.41 13.06L77.41 13.06Q77.73 13.06 77.93 13.01L77.93 13.01L77.93 13.01Q78.13 12.95 78.25 12.89L78.25 12.89L78.25 7.99L78.25 7.99Q78.39 7.95 78.69 7.91L78.69 7.91L78.69 7.91Q78.99 7.87 79.31 7.87L79.31 7.87L79.31 7.87Q79.62 7.87 79.86 7.91L79.86 7.91L79.86 7.91Q80.11 7.95 80.28 8.08L80.28 8.08L80.28 8.08Q80.44 8.20 80.53 8.42L80.53 8.42L80.53 8.42Q80.63 8.64 80.63 8.99L80.63 8.99L80.63 13.24L80.63 13.24Q80.63 13.94 80.04 14.29L80.04 14.29L80.04 14.29Q79.55 14.60 78.87 14.76L78.87 14.76L78.87 14.76Q78.19 14.92 77.39 14.92L77.39 14.92L77.39 14.92Q76.64 14.92 76.00 14.76L76.00 14.76L76.00 14.76Q75.36 14.59 74.90 14.24L74.90 14.24L74.90 14.24Q74.44 13.89 74.19 13.34L74.19 13.34L74.19 13.34Q73.93 12.78 73.93 12.00L73.93 12.00ZM86.39 13.69L86.39 10.39L86.39 10.39Q86.39 9.95 86.15 9.75L86.15 9.75L86.15 9.75Q85.90 9.55 85.48 9.55L85.48 9.55L85.48 9.55Q85.20 9.55 84.93 9.62L84.93 9.62L84.93 9.62Q84.66 9.69 84.46 9.83L84.46 9.83L84.46 14.69L84.46 14.69Q84.32 14.73 84.02 14.77L84.02 14.77L84.02 14.77Q83.72 14.81 83.40 14.81L83.40 14.81L83.40 14.81Q83.09 14.81 82.84 14.77L82.84 14.77L82.84 14.77Q82.60 14.73 82.43 14.60L82.43 14.60L82.43 14.60Q82.26 14.48 82.17 14.26L82.17 14.26L82.17 14.26Q82.08 14.04 82.08 13.69L82.08 13.69L82.08 9.49L82.08 9.49Q82.08 9.11 82.24 8.88L82.24 8.88L82.24 8.88Q82.40 8.64 82.68 8.44L82.68 8.44L82.68 8.44Q83.16 8.11 83.88 7.90L83.88 7.90L83.88 7.90Q84.60 7.69 85.48 7.69L85.48 7.69L85.48 7.69Q87.07 7.69 87.92 8.38L87.92 8.38L87.92 8.38Q88.77 9.07 88.77 10.30L88.77 10.30L88.77 14.69L88.77 14.69Q88.63 14.73 88.33 14.77L88.33 14.77L88.33 14.77Q88.03 14.81 87.71 14.81L87.71 14.81L87.71 14.81Q87.40 14.81 87.16 14.77L87.16 14.77L87.16 14.77Q86.91 14.73 86.74 14.60L86.74 14.60L86.74 14.60Q86.58 14.48 86.48 14.26L86.48 14.26L86.48 14.26Q86.39 14.04 86.39 13.69L86.39 13.69ZM90.19 6.01L90.19 6.01L90.19 6.01Q90.19 5.47 90.54 5.11L90.54 5.11L90.54 5.11Q90.90 4.75 91.49 4.75L91.49 4.75L91.49 4.75Q92.08 4.75 92.43 5.11L92.43 5.11L92.43 5.11Q92.79 5.47 92.79 6.01L92.79 6.01L92.79 6.01Q92.79 6.54 92.43 6.90L92.43 6.90L92.43 6.90Q92.08 7.27 91.49 7.27L91.49 7.27L91.49 7.27Q90.90 7.27 90.54 6.90L90.54 6.90L90.54 6.90Q90.19 6.54 90.19 6.01ZM92.68 8.99L92.68 14.69L92.68 14.69Q92.53 14.71 92.22 14.76L92.22 14.76L92.22 14.76Q91.92 14.81 91.62 14.81L91.62 14.81L91.62 14.81Q91.31 14.81 91.06 14.77L91.06 14.77L91.06 14.77Q90.82 14.73 90.65 14.60L90.65 14.60L90.65 14.60Q90.48 14.48 90.39 14.26L90.39 14.26L90.39 14.26Q90.30 14.04 90.30 13.69L90.30 13.69L90.30 7.99L90.30 7.99Q90.45 7.97 90.75 7.92L90.75 7.92L90.75 7.92Q91.06 7.87 91.36 7.87L91.36 7.87L91.36 7.87Q91.67 7.87 91.92 7.91L91.92 7.91L91.92 7.91Q92.16 7.95 92.33 8.08L92.33 8.08L92.33 8.08Q92.50 8.20 92.59 8.42L92.59 8.42L92.59 8.42Q92.68 8.64 92.68 8.99L92.68 8.99ZM98.03 9.56L98.03 9.56L98.03 9.56Q97.68 9.56 97.36 9.67L97.36 9.67L97.36 9.67Q97.05 9.79 96.82 10.00L96.82 10.00L96.82 10.00Q96.59 10.22 96.45 10.54L96.45 10.54L96.45 10.54Q96.31 10.86 96.31 11.30L96.31 11.30L96.31 11.30Q96.31 12.17 96.80 12.60L96.80 12.60L96.80 12.60Q97.30 13.03 98.01 13.03L98.01 13.03L98.01 13.03Q98.43 13.03 98.74 12.94L98.74 12.94L98.74 12.94Q99.05 12.84 99.29 12.73L99.29 12.73L99.29 12.73Q99.57 12.92 99.71 13.15L99.71 13.15L99.71 13.15Q99.85 13.38 99.85 13.71L99.85 13.71L99.85 13.71Q99.85 14.28 99.30 14.60L99.30 14.60L99.30 14.60Q98.76 14.91 97.79 14.91L97.79 14.91L97.79 14.91Q96.91 14.91 96.19 14.65L96.19 14.65L96.19 14.65Q95.48 14.39 94.97 13.92L94.97 13.92L94.97 13.92Q94.46 13.45 94.18 12.80L94.18 12.80L94.18 12.80Q93.90 12.14 93.90 11.34L93.90 11.34L93.90 11.34Q93.90 10.42 94.20 9.72L94.20 9.72L94.20 9.72Q94.50 9.03 95.02 8.58L95.02 8.58L95.02 8.58Q95.54 8.13 96.21 7.91L96.21 7.91L96.21 7.91Q96.89 7.69 97.65 7.69L97.65 7.69L97.65 7.69Q98.66 7.69 99.20 8.05L99.20 8.05L99.20 8.05Q99.75 8.41 99.75 8.99L99.75 8.99L99.75 8.99Q99.75 9.25 99.62 9.49L99.62 9.49L99.62 9.49Q99.50 9.72 99.33 9.88L99.33 9.88L99.33 9.88Q99.09 9.77 98.76 9.67L98.76 9.67L98.76 9.67Q98.42 9.56 98.03 9.56ZM103.95 13.19L103.95 13.19L103.95 13.19Q104.19 13.19 104.47 13.14L104.47 13.14L104.47 13.14Q104.76 13.09 104.90 13.01L104.90 13.01L104.90 11.89L103.89 11.97L103.89 11.97Q103.50 12.00 103.25 12.14L103.25 12.14L103.25 12.14Q103.00 12.28 103.00 12.56L103.00 12.56L103.00 12.56Q103.00 12.84 103.21 13.01L103.21 13.01L103.21 13.01Q103.43 13.19 103.95 13.19ZM103.84 7.69L103.84 7.69L103.84 7.69Q104.59 7.69 105.22 7.84L105.22 7.84L105.22 7.84Q105.84 7.99 106.28 8.31L106.28 8.31L106.28 8.31Q106.72 8.62 106.96 9.11L106.96 9.11L106.96 9.11Q107.20 9.59 107.20 10.25L107.20 10.25L107.20 13.38L107.20 13.38Q107.20 13.75 106.99 13.98L106.99 13.98L106.99 13.98Q106.79 14.21 106.51 14.38L106.51 14.38L106.51 14.38Q105.60 14.92 103.95 14.92L103.95 14.92L103.95 14.92Q103.21 14.92 102.61 14.78L102.61 14.78L102.61 14.78Q102.02 14.64 101.59 14.36L101.59 14.36L101.59 14.36Q101.16 14.08 100.93 13.65L100.93 13.65L100.93 13.65Q100.70 13.22 100.70 12.64L100.70 12.64L100.70 12.64Q100.70 11.68 101.28 11.16L101.28 11.16L101.28 11.16Q101.85 10.64 103.05 10.51L103.05 10.51L104.89 10.32L104.89 10.22L104.89 10.22Q104.89 9.81 104.53 9.64L104.53 9.64L104.53 9.64Q104.17 9.46 103.50 9.46L103.50 9.46L103.50 9.46Q102.97 9.46 102.47 9.58L102.47 9.58L102.47 9.58Q101.96 9.69 101.56 9.86L101.56 9.86L101.56 9.86Q101.37 9.73 101.25 9.47L101.25 9.47L101.25 9.47Q101.12 9.21 101.12 8.93L101.12 8.93L101.12 8.93Q101.12 8.57 101.30 8.35L101.30 8.35L101.30 8.35Q101.47 8.13 101.84 7.98L101.84 7.98L101.84 7.98Q102.24 7.83 102.79 7.76L102.79 7.76L102.79 7.76Q103.35 7.69 103.84 7.69ZM111.03 10.25L111.03 12.36L111.03 12.36Q111.03 12.73 111.26 12.88L111.26 12.88L111.26 12.88Q111.50 13.03 111.92 13.03L111.92 13.03L111.92 13.03Q112.13 13.03 112.35 13.00L112.35 13.00L112.35 13.00Q112.57 12.96 112.74 12.91L112.74 12.91L112.74 12.91Q112.87 13.06 112.96 13.25L112.96 13.25L112.96 13.25Q113.05 13.44 113.05 13.71L113.05 13.71L113.05 13.71Q113.05 14.24 112.65 14.57L112.65 14.57L112.65 14.57Q112.25 14.91 111.24 14.91L111.24 14.91L111.24 14.91Q110.01 14.91 109.35 14.35L109.35 14.35L109.35 14.35Q108.68 13.79 108.68 12.53L108.68 12.53L108.68 6.54L108.68 6.54Q108.84 6.50 109.12 6.45L109.12 6.45L109.12 6.45Q109.41 6.40 109.73 6.40L109.73 6.40L109.73 6.40Q110.35 6.40 110.69 6.62L110.69 6.62L110.69 6.62Q111.03 6.83 111.03 7.53L111.03 7.53L111.03 8.43L112.87 8.43L112.87 8.43Q112.95 8.58 113.03 8.81L113.03 8.81L113.03 8.81Q113.11 9.04 113.11 9.32L113.11 9.32L113.11 9.32Q113.11 9.81 112.89 10.03L112.89 10.03L112.89 10.03Q112.67 10.25 112.31 10.25L112.31 10.25L111.03 10.25ZM114.20 6.01L114.20 6.01L114.20 6.01Q114.20 5.47 114.55 5.11L114.55 5.11L114.55 5.11Q114.91 4.75 115.50 4.75L115.50 4.75L115.50 4.75Q116.09 4.75 116.44 5.11L116.44 5.11L116.44 5.11Q116.80 5.47 116.80 6.01L116.80 6.01L116.80 6.01Q116.80 6.54 116.44 6.90L116.44 6.90L116.44 6.90Q116.09 7.27 115.50 7.27L115.50 7.27L115.50 7.27Q114.91 7.27 114.55 6.90L114.55 6.90L114.55 6.90Q114.20 6.54 114.20 6.01ZM116.69 8.99L116.69 14.69L116.69 14.69Q116.54 14.71 116.23 14.76L116.23 14.76L116.23 14.76Q115.93 14.81 115.63 14.81L115.63 14.81L115.63 14.81Q115.32 14.81 115.07 14.77L115.07 14.77L115.07 14.77Q114.83 14.73 114.66 14.60L114.66 14.60L114.66 14.60Q114.49 14.48 114.40 14.26L114.40 14.26L114.40 14.26Q114.31 14.04 114.31 13.69L114.31 13.69L114.31 7.99L114.31 7.99Q114.46 7.97 114.76 7.92L114.76 7.92L114.76 7.92Q115.07 7.87 115.37 7.87L115.37 7.87L115.37 7.87Q115.68 7.87 115.93 7.91L115.93 7.91L115.93 7.91Q116.17 7.95 116.34 8.08L116.34 8.08L116.34 8.08Q116.51 8.20 116.60 8.42L116.60 8.42L116.60 8.42Q116.69 8.64 116.69 8.99L116.69 8.99ZM125.24 11.30L125.24 11.30L125.24 11.30Q125.24 12.17 124.98 12.85L124.98 12.85L124.98 12.85Q124.71 13.52 124.23 13.99L124.23 13.99L124.23 13.99Q123.75 14.45 123.07 14.69L123.07 14.69L123.07 14.69Q122.40 14.92 121.58 14.92L121.58 14.92L121.58 14.92Q120.75 14.92 120.08 14.67L120.08 14.67L120.08 14.67Q119.41 14.42 118.92 13.95L118.92 13.95L118.92 13.95Q118.44 13.48 118.17 12.81L118.17 12.81L118.17 12.81Q117.91 12.14 117.91 11.30L117.91 11.30L117.91 11.30Q117.91 10.47 118.17 9.80L118.17 9.80L118.17 9.80Q118.44 9.13 118.92 8.66L118.92 8.66L118.92 8.66Q119.41 8.19 120.08 7.94L120.08 7.94L120.08 7.94Q120.75 7.69 121.58 7.69L121.58 7.69L121.58 7.69Q122.40 7.69 123.07 7.95L123.07 7.95L123.07 7.95Q123.75 8.20 124.23 8.67L124.23 8.67L124.23 8.67Q124.71 9.14 124.98 9.81L124.98 9.81L124.98 9.81Q125.24 10.49 125.24 11.30ZM120.34 11.30L120.34 11.30L120.34 11.30Q120.34 12.15 120.67 12.61L120.67 12.61L120.67 12.61Q121.00 13.06 121.59 13.06L121.59 13.06L121.59 13.06Q122.18 13.06 122.49 12.60L122.49 12.60L122.49 12.60Q122.81 12.14 122.81 11.30L122.81 11.30L122.81 11.30Q122.81 10.46 122.49 10.00L122.49 10.00L122.49 10.00Q122.16 9.55 121.58 9.55L121.58 9.55L121.58 9.55Q120.99 9.55 120.67 10.00L120.67 10.00L120.67 10.00Q120.34 10.46 120.34 11.30ZM130.72 13.69L130.72 10.39L130.72 10.39Q130.72 9.95 130.47 9.75L130.47 9.75L130.47 9.75Q130.23 9.55 129.81 9.55L129.81 9.55L129.81 9.55Q129.53 9.55 129.25 9.62L129.25 9.62L129.25 9.62Q128.98 9.69 128.79 9.83L128.79 9.83L128.79 14.69L128.79 14.69Q128.65 14.73 128.34 14.77L128.34 14.77L128.34 14.77Q128.04 14.81 127.72 14.81L127.72 14.81L127.72 14.81Q127.41 14.81 127.17 14.77L127.17 14.77L127.17 14.77Q126.92 14.73 126.76 14.60L126.76 14.60L126.76 14.60Q126.59 14.48 126.50 14.26L126.50 14.26L126.50 14.26Q126.41 14.04 126.41 13.69L126.41 13.69L126.41 9.49L126.41 9.49Q126.41 9.11 126.57 8.88L126.57 8.88L126.57 8.88Q126.73 8.64 127.01 8.44L127.01 8.44L127.01 8.44Q127.48 8.11 128.20 7.90L128.20 7.90L128.20 7.90Q128.93 7.69 129.81 7.69L129.81 7.69L129.81 7.69Q131.39 7.69 132.24 8.38L132.24 8.38L132.24 8.38Q133.10 9.07 133.10 10.30L133.10 10.30L133.10 14.69L133.10 14.69Q132.96 14.73 132.66 14.77L132.66 14.77L132.66 14.77Q132.36 14.81 132.03 14.81L132.03 14.81L132.03 14.81Q131.73 14.81 131.48 14.77L131.48 14.77L131.48 14.77Q131.24 14.73 131.07 14.60L131.07 14.60L131.07 14.60Q130.90 14.48 130.81 14.26L130.81 14.26L130.81 14.26Q130.72 14.04 130.72 13.69L130.72 13.69Z"></path></g><!----><g data-v-d3f97b9e="" id="f8c7e354-e5a6-4029-94b8-48b1441e3a9b" transform="matrix(1.3273333231608073,0,0,1.3273333231608073,304.05042913385404,-4.67933050759639)" stroke="none" fill="white"><path d="M49.617 33.842l.121-.01a3.86 3.86 0 0 1 .217-.005c4.117 0 13.242 5.675 16.003 16.522 1.787 7.021 2.017 16.478-.803 21.784 2.441 3.748 9.384 8.017 16.434 10.001 1.925.542 3.895.816 5.855.816 7.014 0 11.809-3.431 12.617-4.858.22-.53 1.787-4.417 2.526-9.117 1.015-6.469 1.243-12.794.677-18.797-2.604-27.609-21.64-43.914-39.097-45.751a28.998 28.998 0 0 0-3.009-.157c-15.242 0-31.844 12.18-35.836 39.277 4.35-2.76 9.128-5.148 14.25-7.123 5.171-1.992 9.848-2.559 10.045-2.582z"></path><path d="M36.846 103.018l-.069-.1c-2.174-3.401-1.958-14.356 6.195-22.306 5.084-4.957 13.254-9.976 19.268-10.196 2.025-3.988 2.25-12.135.444-19.233-2.487-9.771-10.518-13.977-12.728-13.977h-.012c-.578.076-4.723.663-9.155 2.371-6.11 2.354-11.702 5.32-16.618 8.813C1.563 64.45-3.041 89.087 4.097 105.124c5.107 11.477 17.216 18.606 31.602 18.606 6.851 0 14.136-1.521 21.701-4.525-4.565-2.388-9.024-5.331-13.295-8.78-4.312-3.482-7.141-7.248-7.259-7.407z"></path><path d="M126.568 83.611c-1.237-7.708-5.703-18.969-19.686-30.018.215 5.148-.105 10.482-.957 15.906-.86 5.475-2.708 9.808-2.785 9.989l-.053.11c-1.463 2.821-7.714 6.729-15.644 6.73-2.27 0-4.548-.316-6.771-.942-6.972-1.961-15.276-6.49-18.464-11.586-4.503.243-11.646 4.13-16.878 9.232-7.253 7.072-6.86 16.116-5.736 18.018.348.454 2.931 3.756 6.633 6.746 5.095 4.115 10.458 7.475 15.94 9.985 7.958 3.645 16.07 5.493 24.111 5.493 14.455.001 27.563-6.159 35.061-16.477 4.727-6.504 6.585-14.738 5.229-23.186z"></path></g><!----></svg>