<?xml version="1.0" standalone="no"?>
<!DOCTYPE svg PUBLIC "-//W3C//DTD SVG 20010904//EN"
 "http://www.w3.org/TR/2001/REC-SVG-20010904/DTD/svg10.dtd">
<svg version="1.0" xmlns="http://www.w3.org/2000/svg"
 width="1008.000000pt" height="1008.000000pt" viewBox="0 0 1008.000000 1008.000000"
 preserveAspectRatio="xMidYMid meet">
<metadata>
Created by potrace 1.11, written by Peter Selinger 2001-2013
</metadata>
<g transform="translate(0.000000,1008.000000) scale(0.100000,-0.100000)"
fill="#000000" stroke="none">
<path d="M4639 9816 c-2 -2 -35 -7 -74 -10 -38 -3 -80 -8 -91 -10 -12 -3 -37
-7 -55 -10 -19 -3 -45 -8 -59 -11 -14 -3 -38 -8 -55 -11 -44 -9 -60 -12 -60
-14 0 -1 -9 -3 -20 -5 -21 -4 -120 -33 -145 -42 -8 -3 -19 -7 -25 -8 -74 -17
-482 -208 -505 -236 -3 -3 -19 -13 -37 -22 -17 -9 -37 -22 -45 -29 -7 -8 -36
-28 -64 -46 -28 -18 -61 -40 -72 -50 -11 -9 -35 -28 -53 -42 -172 -135 -355
-318 -509 -513 -8 -11 -21 -25 -27 -32 -7 -8 -13 -18 -13 -23 0 -5 -7 -15 -15
-22 -9 -7 -47 -60 -85 -119 -39 -58 -74 -110 -78 -116 -4 -5 -11 -17 -15 -25
-4 -8 -21 -37 -37 -65 -17 -27 -38 -66 -47 -85 -9 -19 -21 -38 -26 -41 -5 -3
-9 -10 -10 -15 0 -5 -27 -64 -59 -131 -32 -67 -58 -127 -58 -132 0 -6 -5 -11
-11 -11 -5 0 -8 -4 -5 -8 3 -5 -1 -19 -8 -33 -7 -13 -25 -58 -40 -99 -16 -41
-32 -84 -37 -95 -5 -11 -16 -42 -24 -70 -9 -27 -19 -57 -22 -65 -6 -16 -11
-33 -16 -52 -1 -7 -8 -26 -14 -43 -11 -28 -70 -245 -78 -287 -2 -11 -6 -27 -9
-36 -3 -9 -8 -29 -11 -44 -3 -16 -8 -40 -11 -55 -4 -16 -7 -34 -7 -40 0 -7 -4
-13 -9 -13 -5 0 -7 -4 -3 -9 3 -5 1 -30 -5 -56 -6 -25 -13 -62 -16 -83 -3 -20
-7 -48 -10 -62 -15 -74 -15 -112 -2 -104 7 4 43 27 81 51 37 24 71 43 76 43 5
0 11 3 13 8 2 4 33 23 71 42 37 19 67 38 67 42 0 4 9 8 20 8 11 0 20 4 20 9 0
8 51 31 67 30 3 -1 9 4 12 9 8 12 271 142 288 142 7 0 13 5 13 10 0 6 5 10 11
10 6 0 25 6 42 14 69 31 145 64 212 91 39 15 84 33 100 40 84 36 357 123 435
139 14 3 50 12 80 20 30 8 69 17 85 20 131 22 159 28 166 32 17 10 166 6 209
-6 25 -7 50 -13 57 -14 7 -1 16 -5 19 -9 4 -4 14 -7 21 -7 53 0 345 -178 458
-280 62 -55 188 -184 210 -214 11 -16 32 -42 48 -58 15 -17 27 -33 27 -37 0
-4 8 -16 18 -27 15 -16 66 -93 97 -145 33 -56 105 -203 105 -215 0 -8 4 -14 9
-14 5 0 11 -10 14 -22 2 -13 19 -63 37 -113 18 -49 34 -101 36 -115 3 -14 9
-36 14 -50 8 -21 19 -75 35 -165 2 -11 6 -29 8 -40 11 -51 31 -184 41 -285 9
-78 19 -270 19 -349 -1 -96 -12 -323 -19 -354 -4 -20 -7 -39 -19 -122 -3 -16
-7 -41 -10 -55 -3 -14 -8 -38 -11 -54 -2 -16 -7 -32 -9 -36 -2 -3 -6 -17 -9
-31 -6 -33 -66 -189 -82 -214 -12 -18 -10 -26 14 -60 29 -44 192 -208 236
-239 15 -11 39 -30 54 -43 15 -13 30 -23 34 -23 4 0 13 -6 20 -12 40 -39 234
-155 378 -227 260 -130 556 -233 770 -267 147 -23 406 -23 533 1 215 40 377
98 527 187 98 59 97 59 159 119 38 35 55 64 81 130 30 77 58 164 60 181 0 4 9
28 20 52 10 24 16 46 14 49 -3 2 1 17 7 33 6 16 13 38 15 49 1 11 5 29 8 40
12 49 55 265 61 310 4 28 9 61 11 75 2 14 6 45 8 70 3 25 7 55 10 67 3 12 7
55 10 95 4 40 9 100 12 133 16 184 22 626 9 810 -12 185 -23 312 -31 355 -2
14 -7 45 -10 70 -3 25 -7 56 -10 70 -2 14 -6 45 -9 70 -3 25 -8 53 -11 62 -5
16 -10 40 -19 88 -5 29 -21 103 -29 140 -3 14 -10 48 -17 75 -6 28 -13 57 -16
65 -3 8 -7 22 -9 30 -8 43 -87 289 -123 385 -63 171 -75 198 -135 325 -17 36
-31 67 -31 70 -2 18 -144 278 -202 368 -18 29 -33 57 -33 62 0 6 -3 10 -8 10
-4 0 -16 17 -27 37 -11 20 -25 41 -30 47 -6 6 -26 34 -45 61 -26 39 -125 169
-182 240 -29 36 -215 240 -256 282 -7 7 -18 13 -23 13 -5 0 -9 5 -9 11 0 6
-12 21 -27 33 -28 22 -109 94 -151 134 -12 12 -27 22 -32 22 -4 0 -10 3 -12 8
-6 14 -106 92 -119 92 -7 0 -9 3 -6 7 4 3 -2 11 -12 17 -11 6 -67 44 -125 84
-57 39 -107 72 -110 72 -3 0 -24 13 -48 29 -24 15 -72 44 -108 63 -36 19 -76
41 -90 49 -14 7 -27 14 -30 14 -3 1 -41 19 -85 40 -44 21 -82 38 -85 38 -3 0
-30 11 -60 25 -58 26 -269 100 -304 107 -12 2 -21 4 -21 5 0 1 -7 3 -15 5 -8
1 -33 7 -55 13 -42 12 -86 21 -120 27 -11 2 -20 4 -20 5 0 1 -11 3 -25 5 -33
5 -157 25 -195 32 -33 6 -431 14 -436 9z"/>
<path d="M3800 7165 c-167 -32 -272 -56 -295 -66 -11 -5 -31 -11 -45 -13 -14
-3 -26 -5 -27 -7 -2 -1 -6 -2 -10 -3 -49 -13 -140 -44 -208 -71 -47 -18 -85
-31 -85 -29 0 2 -22 -8 -49 -21 -27 -14 -56 -25 -65 -25 -9 0 -16 -5 -16 -12
0 -6 -3 -9 -6 -6 -6 6 -43 -9 -199 -82 -160 -74 -259 -124 -287 -143 -16 -10
-28 -15 -28 -10 0 4 -4 4 -8 -2 -4 -5 -32 -23 -62 -39 -101 -52 -369 -215
-407 -246 -7 -6 -24 -15 -38 -22 -14 -6 -25 -15 -25 -19 0 -4 -9 -11 -20 -14
-11 -3 -26 -12 -32 -19 -7 -6 -35 -27 -63 -46 -27 -19 -55 -39 -61 -45 -6 -5
-23 -19 -39 -30 -41 -30 -232 -185 -290 -236 -78 -68 -375 -367 -432 -434 -28
-33 -76 -91 -107 -130 -31 -38 -62 -77 -69 -85 -7 -8 -23 -31 -37 -50 -13 -19
-27 -37 -30 -40 -5 -5 -45 -62 -109 -159 -36 -54 -151 -242 -151 -247 0 -2
-11 -22 -25 -44 -14 -22 -22 -40 -18 -40 5 0 3 -4 -3 -8 -21 -13 -224 -460
-224 -492 0 -4 -8 -25 -17 -46 -9 -22 -17 -44 -19 -50 -1 -5 -18 -63 -38 -128
-21 -65 -35 -121 -32 -124 3 -3 2 -10 -4 -16 -9 -12 -29 -81 -34 -121 -1 -11
-8 -47 -15 -79 -17 -76 -22 -107 -36 -211 -4 -33 -9 -68 -11 -78 -26 -147 -26
-625 2 -817 2 -19 6 -51 9 -70 2 -19 4 -35 5 -35 2 0 9 -36 14 -75 3 -19 5
-35 6 -35 2 0 5 -15 13 -60 14 -76 32 -138 79 -285 22 -69 43 -127 47 -130 3
-3 7 -14 9 -25 9 -51 206 -425 241 -455 3 -3 11 -12 16 -21 25 -40 65 -96 87
-121 13 -14 38 -44 56 -66 98 -121 276 -282 436 -397 16 -11 34 -26 41 -32 8
-7 18 -13 23 -13 5 0 22 -11 38 -25 16 -14 33 -25 38 -25 5 0 17 -6 25 -14 26
-23 259 -142 356 -182 94 -38 336 -120 376 -127 13 -2 31 -6 39 -9 43 -16 94
-27 102 -22 4 3 8 1 8 -4 0 -5 10 -8 22 -7 13 1 28 0 33 -4 6 -3 12 -6 15 -6
98 -13 127 -17 140 -20 39 -7 123 -17 210 -25 94 -8 556 -6 595 3 11 3 56 8
100 12 96 10 112 12 145 19 14 2 43 7 65 10 38 5 70 11 125 22 14 3 34 7 45 9
87 15 354 79 385 92 18 7 28 10 58 17 12 3 26 7 30 10 5 3 19 7 33 10 13 2 83
25 154 50 72 26 135 48 140 50 6 1 23 8 38 14 16 7 30 12 32 12 2 0 16 5 31
10 l28 11 -25 13 c-50 26 -165 91 -328 187 -14 8 -34 22 -45 32 -11 9 -23 17
-28 17 -4 0 -47 27 -96 60 -49 33 -92 60 -96 60 -3 0 -14 7 -23 16 -10 9 -63
48 -118 87 -55 39 -103 76 -107 82 -4 5 -8 7 -8 3 0 -8 -34 18 -72 55 -10 9
-22 17 -27 17 -5 0 -11 3 -13 8 -1 4 -23 23 -48 42 -25 19 -50 39 -56 45 -7 5
-40 35 -75 65 -81 70 -288 277 -359 360 -30 35 -60 68 -65 74 -35 37 -85 119
-104 169 -63 171 -69 460 -14 697 8 36 17 76 20 89 4 24 37 131 50 161 3 8 7
18 8 23 2 4 3 8 5 10 1 1 3 9 5 18 5 27 115 252 132 271 9 10 13 18 9 18 -9 0
94 150 162 235 49 62 237 254 288 295 11 8 44 36 74 61 83 69 204 159 305 226
152 101 408 242 428 235 4 -1 7 2 7 7 0 5 17 15 38 22 20 7 53 19 72 27 19 9
37 16 40 17 3 1 13 5 22 9 9 4 22 8 30 10 7 1 18 4 23 7 6 4 24 10 40 14 17 5
35 10 40 12 23 7 152 35 175 37 14 1 30 4 35 7 6 3 27 5 47 4 30 0 39 4 49 25
13 28 49 127 54 150 22 96 27 119 30 140 2 14 6 34 8 45 3 11 8 52 12 90 4 39
9 84 11 100 5 37 4 365 -1 420 -12 127 -17 173 -20 195 -2 14 -7 45 -11 70 -3
25 -8 54 -10 65 -2 11 -5 36 -8 55 -5 32 -8 45 -20 98 -2 9 -7 31 -11 47 -4
17 -16 62 -28 100 -11 39 -21 72 -22 75 -1 3 -7 19 -14 35 -7 17 -14 35 -15
40 -5 19 -40 100 -61 140 -62 116 -81 148 -95 163 -8 9 -21 29 -28 43 -8 14
-23 37 -35 52 -12 14 -37 44 -56 67 -50 61 -190 200 -202 200 -5 0 -12 7 -15
15 -4 8 -12 15 -19 15 -7 0 -15 3 -17 8 -4 11 -106 82 -117 82 -5 0 -11 4 -13
9 -4 12 -134 75 -193 94 -81 25 -95 25 -215 2z"/>
<path d="M8473 5627 c-1 -225 -6 -354 -18 -502 -11 -138 -22 -257 -30 -305 -2
-19 -8 -57 -11 -85 -3 -27 -8 -59 -10 -70 -2 -11 -7 -40 -10 -65 -3 -25 -8
-53 -10 -62 -3 -10 -7 -29 -10 -43 -2 -14 -6 -35 -8 -47 -2 -13 -14 -63 -26
-113 -12 -49 -23 -97 -25 -105 -8 -37 -77 -255 -85 -269 -4 -9 -8 -18 -8 -21
-1 -7 -11 -38 -25 -75 -7 -16 -11 -33 -9 -37 1 -5 -3 -8 -10 -8 -6 0 -9 -3 -5
-6 15 -15 -108 -162 -189 -224 -51 -39 -156 -105 -196 -123 -16 -6 -28 -15
-28 -19 0 -4 -8 -8 -18 -8 -10 0 -22 -4 -27 -9 -11 -10 -188 -81 -214 -86 -9
-2 -17 -4 -18 -5 -2 -2 -6 -3 -10 -5 -5 -1 -15 -5 -24 -9 -9 -4 -20 -6 -25 -5
-5 1 -16 0 -24 -4 -13 -5 -48 -13 -140 -33 -32 -7 -117 -17 -152 -18 -16 -1
-28 -3 -28 -6 0 -7 -300 -3 -370 5 -30 3 -70 7 -87 8 -18 1 -33 4 -33 7 0 3
-15 7 -32 8 -99 8 -418 108 -596 188 -29 13 -55 24 -58 24 -10 0 -237 116
-324 165 -151 85 -338 218 -444 315 -74 69 -195 199 -196 212 0 3 -11 19 -24
35 -25 30 -28 30 -111 19 -69 -9 -264 -70 -323 -100 -18 -9 -32 -13 -32 -10 0
4 -9 -1 -20 -11 -11 -10 -20 -15 -20 -11 0 6 -232 -113 -264 -137 -6 -4 -51
-33 -101 -65 -49 -31 -97 -62 -105 -69 -8 -6 -55 -42 -105 -79 -49 -38 -95
-73 -101 -79 -6 -5 -37 -32 -69 -60 -103 -87 -211 -200 -280 -290 -86 -111
-218 -335 -198 -335 4 0 2 -4 -5 -9 -16 -10 -87 -214 -108 -313 -23 -107 -23
-107 -29 -178 -11 -118 -11 -160 -3 -160 5 0 4 -8 -1 -19 -6 -10 -8 -21 -5
-24 3 -3 8 -29 10 -59 6 -78 32 -157 60 -184 13 -14 24 -27 24 -30 0 -3 6 -11
13 -18 6 -8 37 -42 67 -77 96 -111 331 -339 350 -339 5 0 10 -4 10 -9 0 -5 26
-28 58 -52 31 -24 62 -48 68 -54 6 -5 24 -20 40 -32 16 -12 52 -41 81 -63 29
-22 55 -40 57 -40 3 0 17 -11 32 -25 15 -14 33 -25 40 -25 8 0 14 -3 14 -8 0
-4 18 -18 40 -32 22 -14 40 -28 40 -32 0 -5 5 -8 10 -8 6 0 16 -5 23 -10 24
-21 198 -130 206 -130 5 0 11 -4 13 -8 3 -7 37 -28 197 -119 63 -36 408 -213
416 -213 3 0 33 -13 67 -29 63 -28 290 -119 318 -127 8 -2 65 -21 126 -43 62
-21 122 -41 135 -44 13 -3 58 -15 99 -27 169 -47 414 -100 530 -114 9 -1 21
-5 28 -10 7 -4 12 -2 12 4 0 7 6 8 18 1 11 -6 27 -10 38 -10 10 0 39 -3 64 -5
25 -3 70 -8 100 -11 30 -3 81 -7 113 -8 31 -1 57 -5 57 -10 0 -4 8 -3 19 2 10
6 21 8 25 4 17 -17 565 3 596 22 6 3 10 1 10 -5 0 -6 5 -8 11 -5 5 4 23 9 40
11 16 2 44 6 62 9 17 3 51 8 74 10 23 3 53 9 66 14 14 6 27 7 30 5 3 -3 25 0
48 6 59 16 78 20 118 27 19 3 70 16 114 29 44 13 83 21 88 18 5 -3 9 0 9 5 0
6 3 10 8 9 6 -2 28 4 102 28 8 3 15 5 15 4 0 -1 14 4 30 10 94 37 192 72 203
73 6 0 12 3 12 7 0 4 21 15 48 25 60 23 326 157 330 167 2 4 7 8 12 8 9 0 131
70 140 80 3 3 26 19 52 35 27 17 48 33 48 38 0 4 4 7 10 7 5 0 47 28 92 62 83
62 96 73 192 158 64 57 220 216 266 271 19 23 42 50 50 59 33 40 47 58 98 126
28 39 52 77 52 83 0 6 4 11 8 11 5 0 15 12 23 27 8 16 17 30 21 33 6 5 153
288 155 300 1 3 7 19 13 35 56 153 80 223 84 248 1 7 5 17 8 23 4 6 10 26 13
45 4 29 13 68 21 102 1 4 2 8 4 10 3 4 7 31 15 92 3 33 8 62 10 66 10 16 20
182 20 349 0 242 -11 350 -57 570 -6 30 -12 60 -13 65 -3 25 -80 281 -97 323
-6 15 -12 32 -13 37 0 6 -7 24 -15 40 -7 17 -14 35 -15 41 -3 12 -6 18 -74
167 -22 48 -40 90 -40 94 0 3 -3 9 -8 12 -4 3 -19 30 -33 58 -14 29 -28 53
-32 53 -5 0 -8 6 -8 13 0 6 -18 40 -40 75 -22 34 -40 67 -40 72 0 6 -3 10 -8
10 -4 0 -13 13 -20 28 -6 16 -21 37 -31 49 -10 11 -26 33 -35 49 -28 50 -40
68 -58 85 -10 9 -18 19 -18 23 0 9 -152 201 -215 271 -11 13 -43 49 -71 82
-74 84 -245 255 -349 348 -49 44 -98 89 -110 100 -12 11 -37 32 -56 46 -19 15
-47 39 -64 53 -16 15 -41 36 -55 46 l-26 18 -1 -241z"/>
</g>
</svg>
